<svg width="255" height="60" viewBox="0 0 255 60" fill="none" xmlns="http://www.w3.org/2000/svg">
<path d="M68.575 39.504L69.199 36.144C70.751 36.144 72.103 36.104 73.255 36.024C74.407 35.928 75.359 35.792 76.111 35.616C76.879 35.424 77.447 35.176 77.815 34.872C78.199 34.568 78.391 34.2 78.391 33.768C78.391 33.192 78.295 32.504 78.103 31.704C77.911 30.888 77.663 30.064 77.359 29.232L80.503 28.32C80.711 28.864 80.911 29.464 81.103 30.12C81.295 30.76 81.447 31.408 81.559 32.064C81.687 32.704 81.751 33.304 81.751 33.864C81.751 34.856 81.535 35.712 81.103 36.432C80.671 37.136 79.951 37.72 78.943 38.184C77.951 38.632 76.607 38.96 74.911 39.168C73.215 39.392 71.103 39.504 68.575 39.504ZM68.551 39.504C66.823 39.504 65.359 39.368 64.159 39.096C62.975 38.84 62.007 38.472 61.255 37.992C60.519 37.496 59.983 36.92 59.647 36.264C59.311 35.608 59.143 34.888 59.143 34.104C59.143 33.592 59.183 33.08 59.263 32.568C59.359 32.04 59.471 31.528 59.599 31.032C59.743 30.536 59.871 30.088 59.983 29.688L62.983 30.384C62.919 30.672 62.847 30.984 62.767 31.32C62.687 31.656 62.623 31.984 62.575 32.304C62.527 32.608 62.503 32.888 62.503 33.144C62.503 33.736 62.711 34.264 63.127 34.728C63.559 35.176 64.263 35.528 65.239 35.784C66.215 36.024 67.527 36.144 69.175 36.144L69.655 38.736L68.551 39.504ZM72.511 28.536C72.047 28.536 71.647 28.376 71.311 28.056C70.991 27.72 70.831 27.328 70.831 26.88C70.831 26.416 70.991 26.016 71.311 25.68C71.647 25.344 72.047 25.176 72.511 25.176C72.959 25.176 73.343 25.344 73.663 25.68C73.983 26.016 74.143 26.416 74.143 26.88C74.143 27.328 73.983 27.72 73.663 28.056C73.343 28.376 72.959 28.536 72.511 28.536ZM68.359 28.512C67.895 28.512 67.495 28.352 67.159 28.032C66.839 27.696 66.679 27.304 66.679 26.856C66.679 26.392 66.839 25.992 67.159 25.656C67.495 25.32 67.895 25.152 68.359 25.152C68.807 25.152 69.191 25.32 69.511 25.656C69.831 25.992 69.991 26.392 69.991 26.856C69.991 27.304 69.831 27.696 69.511 28.032C69.191 28.352 68.807 28.512 68.359 28.512ZM90.5689 39.12C89.0809 39.12 87.9289 38.968 87.1129 38.664C86.3129 38.36 85.7529 37.888 85.4329 37.248C85.1129 36.592 84.9289 35.768 84.8809 34.776L84.3769 21.432H87.7369L88.2409 33.168C88.2729 33.904 88.3529 34.456 88.4809 34.824C88.6089 35.192 88.8489 35.44 89.2009 35.568C89.5689 35.696 90.1049 35.76 90.8089 35.76C91.4169 35.76 91.8489 35.92 92.1049 36.24C92.3769 36.544 92.5129 36.928 92.5129 37.392C92.5129 37.888 92.3449 38.304 92.0089 38.64C91.6729 38.96 91.1929 39.12 90.5689 39.12ZM90.6016 39.12L90.8416 35.784C92.1696 35.784 93.2336 35.776 94.0336 35.76C94.8496 35.744 95.4816 35.712 95.9296 35.664C96.3936 35.6 96.7376 35.528 96.9616 35.448C97.1856 35.352 97.3776 35.248 97.5376 35.136C97.7296 34.992 97.8896 34.8 98.0176 34.56C98.1616 34.304 98.2736 33.968 98.3536 33.552C98.4336 33.136 98.4736 32.616 98.4736 31.992C98.4736 31.208 98.4016 30.552 98.2576 30.024C98.1296 29.48 97.9376 29.072 97.6816 28.8C97.4416 28.528 97.1456 28.392 96.7936 28.392C96.5376 28.392 96.2976 28.48 96.0736 28.656C95.8496 28.816 95.6656 29.04 95.5216 29.328C95.3776 29.616 95.3056 29.944 95.3056 30.312C95.3056 30.52 95.3616 30.704 95.4736 30.864C95.5856 31.024 95.7616 31.144 96.0016 31.224C96.2416 31.304 96.5456 31.344 96.9136 31.344C97.2656 31.344 97.6336 31.304 98.0176 31.224C98.4176 31.128 98.7856 31 99.1216 30.84L99.2176 33.696C98.9616 33.872 98.6656 34.032 98.3296 34.176C97.9936 34.32 97.6336 34.432 97.2496 34.512C96.8816 34.576 96.5056 34.608 96.1216 34.608C95.2736 34.608 94.5376 34.496 93.9136 34.272C93.3056 34.032 92.8336 33.648 92.4976 33.12C92.1616 32.592 91.9936 31.872 91.9936 30.96C91.9936 30.256 92.1136 29.56 92.3536 28.872C92.5936 28.168 92.9376 27.536 93.3856 26.976C93.8336 26.4 94.3616 25.944 94.9696 25.608C95.5776 25.256 96.2496 25.08 96.9856 25.08C98.0736 25.08 98.9696 25.4 99.6736 26.04C100.394 26.664 100.922 27.512 101.258 28.584C101.61 29.64 101.786 30.816 101.786 32.112C101.786 33.248 101.618 34.24 101.282 35.088C100.946 35.92 100.546 36.576 100.082 37.056C99.6976 37.456 99.2576 37.792 98.7616 38.064C98.2656 38.336 97.6576 38.552 96.9376 38.712C96.2336 38.856 95.3616 38.96 94.3216 39.024C93.2976 39.088 92.0576 39.12 90.6016 39.12ZM99.0256 22.896C98.5616 22.896 98.1616 22.736 97.8256 22.416C97.5056 22.08 97.3456 21.688 97.3456 21.24C97.3456 20.776 97.5056 20.376 97.8256 20.04C98.1616 19.704 98.5616 19.536 99.0256 19.536C99.4736 19.536 99.8576 19.704 100.178 20.04C100.498 20.376 100.658 20.776 100.658 21.24C100.658 21.688 100.498 22.08 100.178 22.416C99.8576 22.736 99.4736 22.896 99.0256 22.896ZM94.8736 22.872C94.4096 22.872 94.0096 22.712 93.6736 22.392C93.3536 22.056 93.1936 21.664 93.1936 21.216C93.1936 20.752 93.3536 20.352 93.6736 20.016C94.0096 19.68 94.4096 19.512 94.8736 19.512C95.3216 19.512 95.7056 19.68 96.0256 20.016C96.3456 20.352 96.5056 20.752 96.5056 21.216C96.5056 21.664 96.3456 22.056 96.0256 22.392C95.7056 22.712 95.3216 22.872 94.8736 22.872ZM110.327 39.12C108.839 39.12 107.687 38.968 106.871 38.664C106.071 38.36 105.511 37.888 105.191 37.248C104.871 36.592 104.687 35.768 104.639 34.776L104.135 21.432H107.495L107.999 33.168C108.031 33.904 108.111 34.456 108.239 34.824C108.367 35.192 108.607 35.44 108.959 35.568C109.327 35.696 109.863 35.76 110.567 35.76C111.175 35.76 111.607 35.92 111.863 36.24C112.135 36.544 112.271 36.928 112.271 37.392C112.271 37.888 112.103 38.304 111.767 38.64C111.431 38.96 110.951 39.12 110.327 39.12ZM110.359 39.12L110.599 35.76C111.207 35.76 111.687 35.704 112.039 35.592C112.407 35.48 112.695 35.256 112.903 34.92C113.127 34.568 113.311 34.056 113.455 33.384C113.615 32.712 113.775 31.816 113.935 30.696L117.079 31.224C117.047 31.464 116.999 31.744 116.935 32.064C116.887 32.384 116.839 32.712 116.791 33.048C116.759 33.368 116.743 33.672 116.743 33.96C116.743 34.344 116.823 34.672 116.983 34.944C117.159 35.2 117.463 35.4 117.895 35.544C118.343 35.688 118.983 35.76 119.815 35.76C120.423 35.76 120.855 35.92 121.111 36.24C121.367 36.544 121.495 36.928 121.495 37.392C121.495 37.888 121.327 38.304 120.991 38.64C120.671 38.96 120.199 39.12 119.575 39.12C118.471 39.12 117.575 39.016 116.887 38.808C116.199 38.6 115.687 38.248 115.351 37.752C115.015 37.256 114.799 36.576 114.703 35.712H115.855C115.567 36.48 115.231 37.096 114.847 37.56C114.463 38.008 114.031 38.344 113.551 38.568C113.071 38.792 112.559 38.936 112.015 39C111.487 39.08 110.935 39.12 110.359 39.12ZM114.631 44.64C114.167 44.64 113.767 44.48 113.431 44.16C113.111 43.84 112.951 43.448 112.951 42.984C112.951 42.52 113.111 42.112 113.431 41.76C113.767 41.424 114.167 41.256 114.631 41.256C115.095 41.256 115.487 41.424 115.807 41.76C116.143 42.112 116.311 42.52 116.311 42.984C116.311 43.448 116.143 43.84 115.807 44.16C115.487 44.48 115.095 44.64 114.631 44.64ZM119.57 39.12L119.81 35.76C120.546 35.76 121.074 35.688 121.394 35.544C121.714 35.384 121.906 35.096 121.97 34.68C122.034 34.248 122.05 33.624 122.018 32.808L121.586 21.432H124.97L125.45 33.048C125.482 33.976 125.442 34.816 125.33 35.568C125.234 36.304 124.986 36.936 124.586 37.464C124.202 37.992 123.602 38.4 122.786 38.688C121.986 38.976 120.914 39.12 119.57 39.12ZM128.615 39L128.111 21.432H131.471L131.975 39H128.615ZM147.419 44.544C146.347 44.544 145.347 44.408 144.419 44.136C143.507 43.88 142.707 43.488 142.019 42.96C141.331 42.448 140.795 41.8 140.411 41.016C140.027 40.248 139.835 39.352 139.835 38.328C139.835 37.96 139.867 37.528 139.931 37.032C139.995 36.536 140.115 35.976 140.291 35.352C140.467 34.712 140.731 34 141.083 33.216L144.035 34.248C143.859 34.744 143.707 35.2 143.579 35.616C143.451 36.016 143.355 36.392 143.291 36.744C143.227 37.08 143.195 37.416 143.195 37.752C143.195 38.392 143.363 38.968 143.699 39.48C144.051 40.008 144.547 40.424 145.187 40.728C145.843 41.032 146.619 41.184 147.515 41.184C148.379 41.184 149.123 41.096 149.747 40.92C150.371 40.744 150.883 40.48 151.283 40.128C151.699 39.792 152.003 39.376 152.195 38.88C152.387 38.368 152.483 37.784 152.483 37.128C152.483 36.44 152.355 35.632 152.099 34.704C151.843 33.776 151.555 32.752 151.235 31.632L154.595 30.768C154.755 31.376 154.883 31.904 154.979 32.352C155.091 32.784 155.179 33.144 155.243 33.432C155.323 33.704 155.395 33.92 155.459 34.08C155.587 34.416 155.771 34.704 156.011 34.944C156.251 35.168 156.603 35.36 157.067 35.52C157.547 35.664 158.187 35.776 158.987 35.856C159.787 35.92 160.819 35.952 162.083 35.952C163.139 35.952 164.051 35.92 164.819 35.856C165.603 35.776 166.259 35.672 166.787 35.544C167.331 35.4 167.763 35.232 168.083 35.04C168.419 34.848 168.659 34.632 168.803 34.392C168.963 34.136 169.043 33.864 169.043 33.576C169.043 33.288 168.971 33.008 168.827 32.736C168.699 32.464 168.483 32.24 168.179 32.064C167.875 31.888 167.483 31.8 167.003 31.8C166.379 31.8 165.755 31.952 165.131 32.256C164.507 32.56 163.899 32.96 163.307 33.456C162.731 33.936 162.195 34.448 161.699 34.992C161.219 35.536 160.795 36.048 160.427 36.528L156.995 36.12C157.459 35.368 157.979 34.624 158.555 33.888C159.147 33.136 159.779 32.432 160.451 31.776C161.123 31.12 161.827 30.544 162.563 30.048C163.315 29.552 164.091 29.16 164.891 28.872C165.691 28.584 166.499 28.44 167.315 28.44C168.387 28.44 169.299 28.656 170.051 29.088C170.803 29.504 171.379 30.08 171.779 30.816C172.195 31.552 172.403 32.392 172.403 33.336C172.403 34.216 172.219 35.024 171.851 35.76C171.499 36.48 170.923 37.112 170.123 37.656C169.339 38.184 168.307 38.592 167.027 38.88C165.747 39.168 164.195 39.312 162.371 39.312C161.459 39.312 160.563 39.256 159.683 39.144C158.819 39.048 158.027 38.896 157.307 38.688C156.587 38.48 155.979 38.224 155.483 37.92C154.987 37.6 154.651 37.232 154.475 36.816L155.819 37.56C155.771 38.648 155.539 39.624 155.123 40.488C154.707 41.352 154.131 42.08 153.395 42.672C152.675 43.28 151.811 43.744 150.803 44.064C149.795 44.384 148.667 44.544 147.419 44.544ZM166.451 26.28C165.955 26.28 165.531 26.112 165.179 25.776C164.843 25.44 164.675 25.024 164.675 24.528C164.675 24.032 164.843 23.608 165.179 23.256C165.531 22.904 165.955 22.728 166.451 22.728C166.931 22.728 167.339 22.904 167.675 23.256C168.027 23.608 168.203 24.032 168.203 24.528C168.203 25.024 168.027 25.44 167.675 25.776C167.339 26.112 166.931 26.28 166.451 26.28ZM173.72 44.544L172.496 41.568C173.344 41.28 174.12 40.944 174.824 40.56C175.544 40.176 176.168 39.752 176.696 39.288C177.224 38.824 177.632 38.32 177.92 37.776C178.208 37.216 178.352 36.616 178.352 35.976C178.352 35.304 178.2 34.568 177.896 33.768C177.592 32.968 177.224 32.152 176.792 31.32L179.936 29.808C180.224 30.304 180.472 30.84 180.68 31.416C180.904 31.976 181.088 32.48 181.232 32.928C181.376 33.376 181.472 33.68 181.52 33.84C181.744 34.608 182.048 35.12 182.432 35.376C182.832 35.632 183.472 35.76 184.352 35.76C184.96 35.76 185.392 35.92 185.648 36.24C185.92 36.544 186.056 36.928 186.056 37.392C186.056 37.888 185.888 38.304 185.552 38.64C185.216 38.96 184.736 39.12 184.112 39.12C183.456 39.12 182.88 39.024 182.384 38.832C181.888 38.64 181.488 38.36 181.184 37.992C180.896 37.624 180.712 37.192 180.632 36.696L181.52 37.2C181.424 38.048 181.144 38.848 180.68 39.6C180.232 40.368 179.648 41.072 178.928 41.712C178.208 42.352 177.4 42.912 176.504 43.392C175.608 43.872 174.68 44.256 173.72 44.544ZM184.141 39.12L184.381 35.76C185.133 35.76 185.709 35.752 186.109 35.736C186.525 35.72 186.837 35.704 187.045 35.688C187.253 35.656 187.429 35.632 187.573 35.616C187.413 35.456 187.205 35.224 186.949 34.92C186.693 34.616 186.461 34.224 186.253 33.744C186.061 33.264 185.965 32.688 185.965 32.016C185.965 31.04 186.213 30.184 186.709 29.448C187.221 28.712 187.909 28.136 188.773 27.72C189.637 27.304 190.605 27.096 191.677 27.096C192.189 27.096 192.661 27.128 193.093 27.192C193.541 27.256 193.989 27.352 194.437 27.48L193.909 30.672C193.589 30.592 193.253 30.528 192.901 30.48C192.549 30.432 192.237 30.408 191.965 30.408C191.437 30.408 190.973 30.496 190.573 30.672C190.189 30.832 189.885 31.064 189.661 31.368C189.453 31.656 189.349 32.008 189.349 32.424C189.349 32.696 189.397 32.952 189.493 33.192C189.605 33.432 189.741 33.648 189.901 33.84C190.061 34.032 190.237 34.2 190.429 34.344C190.621 34.488 190.805 34.608 190.981 34.704C191.173 34.784 191.333 34.84 191.461 34.872C191.861 34.76 192.205 34.664 192.493 34.584C192.797 34.488 193.085 34.4 193.357 34.32C193.645 34.224 193.957 34.104 194.293 33.96C194.629 33.816 195.045 33.64 195.541 33.432L196.621 36.6C195.277 37.256 193.965 37.768 192.685 38.136C191.405 38.504 190.077 38.76 188.701 38.904C187.325 39.048 185.805 39.12 184.141 39.12Z" fill="#F9ECFF"/>
<rect x="1" y="1" width="253" height="58" rx="29" stroke="url(#paint0_linear_11_356)" stroke-width="2"/>
<defs>
<linearGradient id="paint0_linear_11_356" x1="128" y1="30" x2="-2.93733e-06" y2="30" gradientUnits="userSpaceOnUse">
<stop stop-color="#A56ECE"/>
<stop offset="1" stop-color="#804DA7"/>
</linearGradient>
</defs>
</svg>
